<?xml version="1.0" standalone="no"?>
<!DOCTYPE svg PUBLIC "-//W3C//DTD SVG 20010904//EN"
 "http://www.w3.org/TR/2001/REC-SVG-20010904/DTD/svg10.dtd">
<svg version="1.0" xmlns="http://www.w3.org/2000/svg"
 width="300.000000pt" height="300.000000pt" viewBox="0 0 300.000000 300.000000"
 preserveAspectRatio="xMidYMid meet">
<metadata>
Created by potrace 1.10, written by Peter Selinger 2001-2011
</metadata>
<g transform="translate(0.000000,300.000000) scale(0.100000,-0.100000)"
fill="#0096c7" stroke="none">
<path d="M1364 2683 c-6 -5 -21 -46 -33 -92 -11 -46 -22 -85 -23 -86 -2 -2
-36 -13 -77 -26 -41 -12 -120 -46 -174 -74 l-100 -52 -74 45 -74 46 -99 -100
c-95 -94 -118 -132 -91 -149 6 -3 26 -32 45 -64 l36 -58 -44 -94 c-24 -52 -50
-120 -57 -151 l-12 -57 -51 -11 c-28 -6 -62 -14 -75 -16 -61 -12 -61 -13 -61
-164 l0 -138 33 -11 c17 -5 58 -15 89 -21 l57 -11 27 -87 c14 -48 42 -118 61
-155 l34 -69 -45 -69 c-25 -38 -46 -75 -46 -82 0 -7 46 -59 101 -115 l101
-103 57 32 c31 18 64 37 73 43 14 8 24 7 45 -7 60 -38 182 -95 250 -116 l72
-23 21 -72 c12 -39 23 -79 26 -89 5 -16 19 -17 147 -15 l142 3 21 85 22 85
104 36 c57 19 136 55 177 79 56 33 77 41 90 34 9 -6 42 -25 74 -43 l58 -33 95
94 c53 51 100 100 105 109 6 12 -3 34 -34 80 -24 35 -46 69 -49 75 -4 6 0 24
8 40 33 61 68 152 84 214 l16 65 55 13 c30 6 71 17 92 22 l37 11 0 143 0 144
-72 17 c-40 9 -80 19 -90 21 -10 3 -26 34 -42 86 -15 44 -42 111 -60 149 l-34
69 32 52 c18 29 40 66 51 81 l18 28 -94 95 c-52 53 -101 99 -110 104 -12 7
-36 -3 -88 -35 l-71 -44 -67 40 c-68 39 -191 91 -249 103 -30 7 -32 11 -56 99
l-24 92 -134 3 c-74 1 -140 -1 -146 -5z m261 -65 c7 -18 16 -50 20 -70 8 -41
62 -98 94 -98 23 0 139 -48 213 -88 82 -45 97 -46 162 -6 32 19 63 34 69 34 7
0 48 -36 92 -80 l80 -81 -19 -32 c-10 -17 -30 -53 -43 -80 l-24 -47 40 -93
c21 -50 47 -116 56 -144 24 -76 41 -92 119 -114 39 -10 73 -24 78 -31 13 -21
10 -192 -4 -211 -7 -9 -41 -23 -76 -31 -35 -8 -69 -20 -77 -26 -7 -6 -25 -48
-40 -93 -15 -45 -35 -100 -45 -122 -57 -127 -57 -121 0 -213 l32 -52 -20 -27
c-30 -42 -139 -143 -154 -143 -7 0 -35 14 -63 30 -27 16 -58 30 -68 30 -19 0
-62 -19 -138 -63 -47 -27 -153 -67 -177 -67 -35 0 -71 -41 -92 -108 -13 -37
-26 -71 -30 -76 -11 -11 -209 -11 -221 1 -6 6 -16 33 -24 62 -14 56 -39 100
-58 106 -87 27 -200 74 -254 106 -37 21 -79 39 -92 39 -13 0 -48 -14 -78 -30
-46 -26 -57 -29 -76 -19 -31 17 -155 149 -153 163 1 6 17 34 35 61 45 71 47
87 17 148 -35 71 -66 154 -66 176 0 60 -63 112 -153 126 -49 8 -55 25 -48 150
l6 99 55 11 c83 17 116 40 129 90 6 23 31 91 56 150 25 59 45 113 45 118 0 6
-18 41 -40 78 -22 37 -40 71 -40 74 0 13 153 165 165 165 7 0 36 -13 66 -30
30 -16 67 -30 82 -30 16 0 62 18 102 40 40 22 80 40 89 40 9 0 16 4 16 9 0 8
15 12 88 27 7 1 27 11 45 21 25 15 36 31 50 78 35 115 22 105 147 105 l111 0
14 -32z"/>
<path d="M1430 2452 c-167 -17 -332 -84 -450 -181 -144 -119 -222 -220 -281
-366 -13 -33 -24 -62 -24 -65 -1 -3 -7 -23 -14 -45 -8 -23 -15 -104 -16 -195
-3 -146 0 -174 30 -295 10 -42 92 -191 139 -254 45 -61 163 -181 177 -181 4 0
33 -17 65 -39 33 -21 84 -49 114 -61 30 -12 62 -26 71 -30 9 -5 36 -12 60 -15
24 -4 50 -10 59 -15 31 -16 254 -9 321 10 99 28 180 58 224 82 92 50 210 151
277 238 34 43 111 174 114 195 1 6 9 26 17 45 8 19 16 38 17 42 1 4 6 22 11
40 36 119 27 394 -16 493 -7 17 -24 55 -36 85 -87 202 -297 393 -510 464 -124
41 -253 59 -349 48z m279 -62 c240 -71 425 -221 530 -432 63 -127 81 -193 88
-329 7 -134 -9 -246 -49 -347 -100 -247 -275 -417 -515 -501 -167 -58 -323
-62 -488 -11 -323 98 -558 374 -595 699 -25 208 10 372 116 546 121 199 314
335 554 391 81 19 267 11 359 -16z"/>
<path d="M1360 2349 c-106 -29 -151 -45 -211 -76 -187 -96 -342 -289 -400
-498 -27 -99 -29 -266 -5 -366 58 -243 216 -439 437 -543 263 -125 552 -92
789 89 104 80 178 174 237 303 98 216 94 445 -11 662 -108 221 -291 365 -546
426 -63 15 -238 17 -290 3z m310 -46 c30 -9 64 -18 75 -20 31 -5 133 -60 175
-93 21 -17 41 -30 44 -30 4 0 17 -11 29 -24 12 -13 38 -41 57 -62 63 -68 97
-125 145 -239 19 -46 21 -53 40 -155 15 -85 11 -177 -11 -265 -17 -67 -52
-162 -69 -185 -6 -8 -20 -32 -30 -54 -20 -38 -147 -173 -201 -212 -165 -119
-392 -165 -589 -119 -69 16 -181 68 -255 118 -130 90 -248 259 -288 412 -27
102 -30 124 -31 190 -5 317 209 622 505 719 141 46 289 53 404 19z"/>
<path d="M1440 2289 c-406 -36 -716 -445 -636 -836 18 -86 56 -195 79 -222 7
-9 19 -29 27 -46 28 -56 162 -180 250 -231 86 -50 119 -62 249 -90 182 -40
411 41 585 205 194 184 268 498 175 741 -99 259 -316 439 -573 475 -27 4 -54
8 -60 9 -6 2 -49 0 -96 -5z m162 -38 c161 -27 346 -142 438 -273 50 -70 94
-164 115 -243 21 -78 21 -241 0 -320 -59 -225 -241 -419 -461 -491 -76 -25
-105 -29 -194 -29 -174 0 -322 63 -463 194 -89 83 -170 231 -198 362 -18 85
-7 251 24 337 111 315 428 514 739 463z"/>
<path d="M1294 2061 c-26 -11 -84 -77 -84 -96 0 -8 -18 -24 -40 -35 -48 -24
-80 -72 -80 -117 0 -18 -4 -33 -10 -33 -19 0 -52 -81 -46 -114 4 -22 0 -40
-14 -61 -24 -36 -27 -120 -5 -149 8 -11 15 -38 15 -61 0 -90 91 -175 187 -175
40 0 41 -1 48 -41 14 -81 113 -147 184 -122 21 9 23 14 24 111 2 91 0 102 -15
102 -10 0 -18 4 -18 9 0 12 -29 41 -41 41 -5 0 -19 -11 -31 -25 -19 -22 -29
-25 -92 -25 -88 0 -147 26 -170 74 -22 46 -20 70 7 102 27 31 68 35 96 10 22
-20 35 -20 51 -1 35 42 -26 93 -72 61 -35 -25 -76 -20 -109 13 -47 47 -35 112
26 146 29 15 37 16 50 5 25 -20 15 -54 -17 -58 -31 -4 -44 -28 -26 -49 8 -10
21 -13 42 -8 89 18 101 18 134 -10 22 -18 32 -36 32 -54 0 -25 2 -27 38 -23
20 3 49 13 64 23 14 11 32 19 40 19 9 0 13 17 13 65 0 60 -2 65 -21 65 -31 0
-45 -22 -38 -58 5 -24 2 -32 -16 -42 -45 -24 -68 46 -35 109 16 33 33 41 81
41 27 0 34 4 34 20 0 16 -5 19 -30 14 -23 -5 -31 -2 -36 11 -10 25 9 50 37 50
l24 0 -3 110 c-3 100 -6 112 -27 134 -18 18 -37 25 -77 28 -29 1 -62 -1 -74
-6z m91 -65 c40 -17 55 -42 55 -94 0 -43 -29 -79 -70 -85 -22 -4 -24 -8 -21
-59 2 -47 -2 -59 -24 -86 -21 -25 -34 -32 -63 -32 -21 0 -42 4 -48 8 -23 14
-84 117 -84 140 0 29 63 95 86 90 43 -8 43 -68 0 -68 -13 0 -26 -6 -29 -12 -3
-10 28 -67 59 -106 1 -2 12 -1 23 3 19 6 21 14 21 74 0 44 -5 74 -15 87 -17
22 -19 77 -5 104 10 18 55 49 73 50 4 0 23 -6 42 -14z m-311 -505 c14 -16 15
-20 2 -30 -12 -10 -17 -8 -25 8 -22 41 -7 56 23 22z m256 -262 c0 -11 -29 -44
-31 -35 -5 22 -3 32 6 38 15 11 25 10 25 -3z m87 -25 c9 -24 -10 -49 -38 -49
-24 0 -36 23 -25 51 7 19 55 18 63 -2z m-14 -79 c30 15 43 6 24 -18 -16 -21
-74 -11 -88 15 -10 18 -9 19 13 4 21 -13 27 -14 51 -1z"/>
<path d="M1320 1935 c-26 -32 13 -81 48 -59 34 22 22 74 -18 74 -10 0 -23 -7
-30 -15z"/>
<path d="M1585 2061 c-47 -20 -56 -43 -58 -158 l-2 -109 27 4 c22 3 28 0 33
-21 9 -36 -2 -50 -35 -43 -24 4 -27 2 -23 -14 4 -14 14 -20 34 -20 42 0 76
-37 84 -92 5 -41 3 -48 -15 -58 -31 -17 -54 5 -46 43 7 35 -8 57 -38 57 -19 0
-21 -5 -21 -62 l0 -62 45 -23 c25 -13 60 -23 78 -23 27 0 32 4 32 23 0 48 62
86 118 73 66 -17 78 -17 90 -3 18 21 5 45 -26 49 -32 4 -42 38 -17 58 13 11
21 10 50 -5 61 -34 73 -99 26 -146 -33 -33 -74 -38 -109 -13 -46 32 -98 -8
-72 -56 13 -24 33 -26 50 -5 7 8 27 15 45 15 71 0 97 -89 43 -148 -34 -37 -80
-52 -156 -52 -60 0 -71 3 -90 25 -12 14 -26 25 -31 25 -12 0 -41 -29 -41 -40
0 -5 -7 -7 -15 -4 -13 5 -15 -10 -15 -104 0 -109 0 -110 25 -116 14 -4 45 -1
70 5 54 14 91 53 107 115 12 43 13 44 52 44 94 0 186 86 186 174 1 23 7 52 15
66 21 36 19 109 -4 144 -13 20 -18 39 -14 61 5 33 -28 115 -47 115 -6 0 -10
16 -10 37 0 45 -38 98 -86 118 -19 8 -34 19 -34 26 0 23 -53 81 -86 95 -37 15
-88 17 -119 5z m88 -60 c63 -24 88 -103 50 -150 -15 -18 -17 -35 -13 -89 4
-59 8 -67 26 -70 16 -2 29 9 53 47 35 54 34 71 -4 71 -28 0 -43 34 -25 55 19
22 37 18 75 -17 44 -40 45 -74 5 -133 -45 -65 -58 -75 -99 -75 -58 0 -86 35
-87 112 -1 56 -3 62 -25 65 -40 6 -69 42 -69 85 0 49 13 73 48 92 33 18 34 18
65 7z m287 -509 c0 -5 -6 -17 -14 -28 -14 -18 -15 -18 -22 0 -4 11 -2 21 7 27
18 11 29 11 29 1z m-257 -283 c-5 -19 -23 -27 -23 -10 0 5 -3 16 -6 24 -4 12
0 14 14 10 14 -3 18 -11 15 -24z m-58 -24 c0 -25 -4 -31 -26 -33 -29 -3 -44
18 -33 50 4 14 13 18 32 16 23 -2 27 -8 27 -33z m-27 -68 c20 -1 14 -14 -10
-20 -24 -7 -51 10 -42 25 3 5 13 6 23 2 9 -3 22 -7 29 -7z"/>
<path d="M1620 1935 c-26 -32 13 -81 48 -59 34 22 22 74 -18 74 -10 0 -23 -7
-30 -15z"/>
<path d="M1440 1440 c-9 -17 -21 -20 -73 -20 -39 -1 -69 -6 -81 -15 -26 -20
-75 -19 -97 1 -39 35 -54 -18 -16 -54 32 -31 137 -32 169 -2 28 26 85 26 113
0 l21 -20 -1 65 c0 67 -14 85 -35 45z"/>
<path d="M1525 1395 l0 -64 20 19 c28 26 85 26 113 0 33 -31 140 -29 170 3 21
22 31 67 15 67 -5 0 -17 -7 -27 -15 -11 -8 -34 -15 -51 -15 -17 0 -40 7 -51
15 -12 9 -42 14 -81 15 -52 0 -64 3 -73 20 -21 40 -35 23 -35 -45z"/>
</g>
</svg>
